<svg width="564" height="418" viewBox="0 0 564 418" fill="none" xmlns="http://www.w3.org/2000/svg">
    <path d="M537.538 217.293C545.11 217.293 551.08 220.787 555.448 227.777C559.816 234.766 562 244.375 562 256.606C562 279.903 556.467 297.958 545.401 310.771C519.775 341.057 491.673 366.247 461.096 386.34C430.519 406.433 396.011 416.48 357.571 416.48C327.868 416.48 301.513 410.947 278.508 399.881C255.502 388.815 237.302 373.09 223.906 352.705C190.708 394.64 151.395 415.607 105.966 415.607C73.9331 415.607 48.5979 406.288 29.9605 387.65C11.3231 369.013 2.00439 344.26 2.00439 313.392C2.00439 284.271 8.70221 260.683 22.0978 242.628C35.4935 224.573 54.4221 215.546 78.8837 215.546C99.8507 215.546 110.334 223.408 110.334 239.134C110.334 243.211 109.752 250.491 108.587 260.974C106.84 281.941 105.966 293.881 105.966 296.793C105.966 314.266 113.538 323.002 128.68 323.002C139.746 323.002 150.376 316.45 160.568 303.345C170.76 290.241 179.205 272.332 185.903 249.617C192.601 226.903 195.95 201.859 195.95 174.485C195.95 153.518 193.329 135.9 188.087 121.631C182.845 107.361 176.439 100.227 168.867 100.227C162.461 100.227 157.801 101.828 154.889 105.032C151.977 108.235 149.065 113.622 146.153 121.194C142.659 130.513 137.999 137.938 132.175 143.471C126.351 149.004 116.158 151.771 101.598 151.771C88.7848 151.771 78.5925 147.257 71.021 138.23C63.4496 129.202 59.6639 115.37 59.6639 96.7323C59.6639 67.029 68.6913 43.7322 86.7463 26.8421C104.801 9.95191 128.098 1.50684 156.637 1.50684C181.098 1.50684 203.23 7.47663 223.032 19.4162C242.835 31.3558 257.977 48.6828 268.461 71.3971C285.934 48.1003 305.59 30.6278 327.431 18.9794C349.272 7.33102 370.675 1.50684 391.643 1.50684C414.357 1.50684 431.684 6.7486 443.623 17.2321C455.563 27.7157 461.533 44.6058 461.533 67.9026C461.533 94.1114 456.582 114.642 446.681 129.493C436.78 144.345 424.84 151.771 410.862 151.771C398.049 151.771 389.313 149.15 384.654 143.908C379.994 138.666 376.5 131.095 374.17 121.194C373.005 114.205 371.258 108.963 368.928 105.469C366.599 101.974 362.522 100.227 356.697 100.227C349.708 100.227 342.283 106.779 334.42 119.883C326.557 132.988 319.859 150.315 314.326 171.864C308.793 193.414 306.027 215.837 306.027 239.134C306.027 266.507 312.579 287.62 325.684 302.472C338.788 317.323 356.697 324.749 379.412 324.749C402.126 324.749 423.53 317.032 443.623 301.598C463.717 286.164 487.159 262.139 513.95 229.524C520.939 221.37 528.802 217.293 537.538 217.293Z" fill="#16755D" stroke="#2A7B80" stroke-width="2.18407"/>
</svg>